<svg width="272" height="56" viewBox="0 0 272 56" fill="none" xmlns="http://www.w3.org/2000/svg">
<path d="M62.3946 21.2196L62.4033 21.0906H62.5228V18.8405V18.7523L62.4405 18.7203C62.0297 18.5605 61.5327 18.4985 61.014 18.4985C58.9507 18.4985 57.3444 19.4535 56.5237 21.1175V18.8707V18.7418H56.3947H53.8752H53.7463V18.8707V34.257V34.386H53.8752H56.3947H56.5237V34.257V26.3815C56.5237 24.5904 56.9471 23.2805 57.7172 22.4193C58.4851 21.5605 59.6157 21.1282 61.0744 21.1282C61.4805 21.1282 61.8622 21.1531 62.2648 21.2037V21.2196H62.3938H62.3946Z" fill="#101928" stroke="#101928" stroke-width="0.257966"/>
<path d="M78.4437 34.3868H78.5726V34.2578V19.0005V18.8715V18.8707H78.4437V18.7425H75.9242H75.7952V18.8715V21.1621C74.7768 19.4103 72.6918 18.3165 70.3146 18.3165C66.0608 18.3165 62.9562 21.7627 62.9562 26.5643C62.9562 31.3658 66.0608 34.8128 70.3146 34.8128C72.6918 34.8128 74.7768 33.719 75.7952 31.9672V34.2578V34.3868H75.9242H78.4437ZM74.5069 22.5131L74.5069 22.5131L74.5083 22.5146C75.4431 23.5508 75.9152 24.9168 75.9152 26.5635C75.9152 28.2101 75.4431 29.5762 74.5083 30.6124L74.5069 30.6139C73.6036 31.6477 72.3805 32.1816 70.8844 32.1816C69.3892 32.1816 68.1652 31.6481 67.2311 30.6131C66.3256 29.5765 65.8537 28.2098 65.8537 26.5635C65.8537 24.9171 66.3256 23.5505 67.2311 22.5138C68.1652 21.4788 69.3892 20.9454 70.8844 20.9454C72.3805 20.9454 73.6036 21.4793 74.5069 22.5131Z" fill="#101928" stroke="#101928" stroke-width="0.257966"/>
<path d="M95.0057 18.8708V18.7418H94.8767H94.8751H92.3556H92.2266V18.8708V27.5975C92.2266 28.8394 91.7463 29.876 90.9347 30.6033C90.1219 31.3317 88.9693 31.7564 87.6163 31.7564C86.4541 31.7564 85.6273 31.444 85.0866 30.799C84.5416 30.1489 84.2657 29.1365 84.2657 27.6889V18.8708V18.7418H84.1367H81.6173H81.4883V18.8708V28.2969C81.4883 30.2491 81.9964 31.7743 82.9511 32.8125C83.9071 33.8522 85.2949 34.386 87.0171 34.386C89.3347 34.386 91.2367 33.45 92.2274 31.7501V32.7668C92.2274 34.6182 91.782 35.989 90.9671 36.896C90.1542 37.8007 88.956 38.2633 87.4073 38.2633C85.6361 38.2633 83.9283 37.6351 82.7249 36.5335L82.6235 36.4408L82.5373 36.5478L81.0678 38.3726L80.9964 38.4612L81.0754 38.5431C82.5159 40.0347 84.893 40.8937 87.4677 40.8937C89.8335 40.8937 91.7235 40.1861 93.0211 38.8046C94.3176 37.4243 95.0057 35.3892 95.0057 32.7676V18.8708Z" fill="#101928" stroke="#101928" stroke-width="0.257966"/>
<path d="M111.279 34.3868H111.408V34.2578V34.257V24.4049C111.408 22.4834 110.915 20.9585 109.968 19.9127C109.02 18.865 107.631 18.3158 105.879 18.3158C103.568 18.3158 101.695 19.2468 100.729 20.9384V18.8708V18.7418H100.6H98.0806H97.9516V18.8708V34.2578V34.3868H98.0806H100.6H100.729V34.2578V25.1051C100.729 23.8471 101.203 22.8107 102.003 22.0876C102.804 21.3635 103.942 20.9462 105.28 20.9462C106.457 20.9462 107.283 21.2589 107.82 21.9033C108.362 22.5531 108.63 23.5654 108.63 25.0137V34.2578V34.3868H108.759H111.279Z" fill="#101928" stroke="#101928" stroke-width="0.257966"/>
<path d="M129.336 34.3868H129.465V34.2578V19.0005V18.8715V18.8707H129.336V18.7425H126.817H126.688V18.8715V21.1621C125.669 19.4103 123.584 18.3165 121.207 18.3165C116.953 18.3165 113.849 21.7627 113.849 26.5643C113.849 31.3658 116.953 34.8128 121.207 34.8128C123.584 34.8128 125.669 33.719 126.688 31.9672V34.2578V34.3868H126.817H129.336ZM125.4 22.5131L125.399 22.5131L125.401 22.5146C126.336 23.5508 126.808 24.9168 126.808 26.5635C126.808 28.2101 126.336 29.5762 125.401 30.6124L125.4 30.6139C124.496 31.6477 123.273 32.1816 121.777 32.1816C120.282 32.1816 119.058 31.6481 118.124 30.6131C117.218 29.5765 116.746 28.2098 116.746 26.5635C116.746 24.9171 117.218 23.5505 118.124 22.5138C119.058 21.4788 120.282 20.9454 121.777 20.9454C123.273 20.9454 124.496 21.4793 125.4 22.5131Z" fill="#101928" stroke="#101928" stroke-width="0.257966"/>
<path d="M42.6036 29.2666L41.2532 27.9162C41.2191 27.8821 41.231 27.8248 41.2747 27.8058C41.7516 27.5999 42.1974 27.3345 42.6036 27.0205C42.749 26.9077 42.8889 26.7892 43.0232 26.6644C43.4151 26.3004 43.7592 25.8864 44.0453 25.4317C44.0461 25.4301 44.0469 25.4293 44.0477 25.4278C44.221 25.152 44.3736 24.8611 44.5023 24.5583C44.8131 23.8271 44.9863 23.0235 44.9895 22.1795C44.9895 22.1795 44.9895 22.1787 44.9895 22.1779C44.9895 22.1699 44.9895 22.162 44.9895 22.154C44.9895 21.3108 44.8202 20.508 44.5134 19.776C44.4109 19.5304 44.2925 19.2928 44.1598 19.0647C44.1598 19.0631 44.1582 19.0623 44.1582 19.0615C43.5613 18.0362 42.6767 17.2001 41.6157 16.6621C41.6117 16.6597 41.6069 16.6573 41.6029 16.6557C40.7819 16.2416 39.3942 16.0064 38.4135 16C38.3999 16 38.849 16 38.8355 16C38.822 16 38.8093 16 38.7958 16H25.8336C24.821 16 24 16.821 24 17.8336V30.9078C24 31.3314 24.0429 31.7455 24.1248 32.1453C24.1248 32.1461 24.1248 32.1469 24.1248 32.1485C24.2774 32.894 24.5651 33.591 24.9609 34.2117C24.9609 34.2133 24.9625 34.2141 24.9633 34.2157C25.6261 35.2545 26.5926 36.0811 27.7371 36.5699C27.7411 36.5715 27.745 36.5731 27.749 36.5746C27.7578 36.5786 27.7673 36.5826 27.776 36.5866C28.365 36.8337 29 36.9911 29.6652 37.0436C29.8266 37.0563 29.9887 37.0626 30.1532 37.0626C31.0021 37.0626 31.8104 36.891 32.5455 36.5802C33.0645 36.3608 33.5478 36.0723 33.9833 35.7258C33.9841 35.7258 33.9849 35.725 33.9857 35.7242C33.9936 35.7179 34.0024 35.7115 34.0103 35.7044C34.0127 35.7028 34.0151 35.7004 34.0175 35.6988C34.581 35.2434 35.0626 34.691 35.4362 34.0663C35.9655 33.1817 36.2795 32.154 36.3049 31.0548V31.0525C36.3057 31.0048 36.3065 30.9571 36.3065 30.9094C36.3065 30.8617 36.3065 30.814 36.3049 30.7663V28.5688C36.3049 28.4742 36.4193 28.4265 36.4861 28.4933L42.0591 34.0663L43.3634 35.3705C43.965 35.9722 44.9927 35.5462 44.9927 34.6958V32.3408C44.9927 31.9053 44.8194 31.4872 44.5111 31.1788L42.6004 29.2682L42.6036 29.2666ZM38.8331 24.5583H32.9628C32.7331 24.5583 32.5463 24.7442 32.5463 24.9747V30.9595V30.9603C32.4708 32.6389 30.7819 33.7261 29.2313 33.0768C28.3936 32.7263 27.8269 31.918 27.776 31.0032V20.1432C27.776 19.9429 27.939 19.78 28.1392 19.78L33.1575 19.7768C33.1575 19.7768 33.1575 19.7784 33.1567 19.7792C34.2098 19.7792 35.2971 19.7792 36.3065 19.7792C37.2491 19.7792 38.1242 19.7792 38.8395 19.7808C40.1342 19.7824 41.2024 20.8601 41.2071 22.1509C41.2119 23.4742 40.162 24.54 38.8331 24.5591V24.5583Z" fill="#E8562E"/>
</svg>
